<svg xmlns="http://www.w3.org/2000/svg" xmlns:xlink="http://www.w3.org/1999/xlink" width="90" viewBox="0 0 90 30" height="30" version="1.0"><defs><g id="f"><path d="M 0.625 0 L 0.625 -7.234375 L 3.515625 -7.234375 C 4.316406 -7.234375 4.914062 -7.054688 5.3125 -6.703125 C 5.71875 -6.359375 5.921875 -5.914062 5.921875 -5.375 C 5.921875 -4.945312 5.796875 -4.601562 5.546875 -4.34375 C 5.304688 -4.082031 4.992188 -3.910156 4.609375 -3.828125 L 4.609375 -3.75 C 4.890625 -3.738281 5.148438 -3.660156 5.390625 -3.515625 C 5.628906 -3.367188 5.820312 -3.164062 5.96875 -2.90625 C 6.125 -2.65625 6.203125 -2.351562 6.203125 -2 C 6.203125 -1.613281 6.109375 -1.269531 5.921875 -0.96875 C 5.734375 -0.664062 5.453125 -0.425781 5.078125 -0.25 C 4.710938 -0.0820312 4.257812 0 3.71875 0 Z M 2.15625 -1.25 L 3.40625 -1.25 C 3.832031 -1.25 4.140625 -1.332031 4.328125 -1.5 C 4.523438 -1.664062 4.625 -1.882812 4.625 -2.15625 C 4.625 -2.445312 4.515625 -2.6875 4.296875 -2.875 C 4.085938 -3.070312 3.800781 -3.171875 3.4375 -3.171875 L 2.15625 -3.171875 Z M 2.15625 -4.203125 L 3.28125 -4.203125 C 3.601562 -4.203125 3.863281 -4.28125 4.0625 -4.4375 C 4.269531 -4.601562 4.375 -4.832031 4.375 -5.125 C 4.375 -5.382812 4.28125 -5.59375 4.09375 -5.75 C 3.914062 -5.90625 3.65625 -5.984375 3.3125 -5.984375 L 2.15625 -5.984375 Z M 2.15625 -4.203125"/></g><g id="g"><path d="M 5.109375 -7.234375 L 6.625 -7.234375 L 6.625 -2.453125 C 6.625 -1.898438 6.492188 -1.429688 6.234375 -1.046875 C 5.972656 -0.671875 5.617188 -0.382812 5.171875 -0.1875 C 4.722656 0.0078125 4.207031 0.109375 3.625 0.109375 C 3.039062 0.109375 2.519531 0.0078125 2.0625 -0.1875 C 1.613281 -0.382812 1.257812 -0.671875 1 -1.046875 C 0.75 -1.429688 0.625 -1.898438 0.625 -2.453125 L 0.625 -7.234375 L 2.15625 -7.234375 L 2.15625 -2.5 C 2.15625 -2.113281 2.296875 -1.8125 2.578125 -1.59375 C 2.859375 -1.375 3.207031 -1.265625 3.625 -1.265625 C 4.050781 -1.265625 4.40625 -1.375 4.6875 -1.59375 C 4.96875 -1.8125 5.109375 -2.113281 5.109375 -2.5 Z M 5.109375 -7.234375"/></g><g id="h"><path d="M 4.546875 -5.15625 C 4.515625 -5.4375 4.390625 -5.65625 4.171875 -5.8125 C 3.960938 -5.96875 3.675781 -6.046875 3.3125 -6.046875 C 2.9375 -6.046875 2.648438 -5.96875 2.453125 -5.8125 C 2.253906 -5.664062 2.15625 -5.472656 2.15625 -5.234375 C 2.144531 -4.984375 2.253906 -4.789062 2.484375 -4.65625 C 2.710938 -4.519531 2.984375 -4.414062 3.296875 -4.34375 L 3.9375 -4.1875 C 4.363281 -4.09375 4.738281 -3.957031 5.0625 -3.78125 C 5.382812 -3.601562 5.640625 -3.375 5.828125 -3.09375 C 6.015625 -2.8125 6.109375 -2.46875 6.109375 -2.0625 C 6.109375 -1.40625 5.859375 -0.878906 5.359375 -0.484375 C 4.867188 -0.0859375 4.1875 0.109375 3.3125 0.109375 C 2.425781 0.109375 1.722656 -0.0859375 1.203125 -0.484375 C 0.679688 -0.890625 0.410156 -1.484375 0.390625 -2.265625 L 1.875 -2.265625 C 1.894531 -1.898438 2.035156 -1.625 2.296875 -1.4375 C 2.554688 -1.257812 2.882812 -1.171875 3.28125 -1.171875 C 3.675781 -1.171875 3.988281 -1.253906 4.21875 -1.421875 C 4.445312 -1.585938 4.5625 -1.800781 4.5625 -2.0625 C 4.5625 -2.3125 4.457031 -2.5 4.25 -2.625 C 4.039062 -2.757812 3.738281 -2.875 3.34375 -2.96875 L 2.5625 -3.171875 C 1.945312 -3.316406 1.460938 -3.546875 1.109375 -3.859375 C 0.753906 -4.179688 0.578125 -4.609375 0.578125 -5.140625 C 0.578125 -5.578125 0.695312 -5.957031 0.9375 -6.28125 C 1.175781 -6.613281 1.5 -6.867188 1.90625 -7.046875 C 2.320312 -7.234375 2.796875 -7.328125 3.328125 -7.328125 C 3.859375 -7.328125 4.320312 -7.234375 4.71875 -7.046875 C 5.125 -6.867188 5.4375 -6.613281 5.65625 -6.28125 C 5.882812 -5.957031 6.003906 -5.582031 6.015625 -5.15625 Z M 4.546875 -5.15625"/></g><g id="i"><path d="M 0.625 0 L 0.625 -7.234375 L 2.15625 -7.234375 L 2.15625 -4.25 L 5.265625 -4.25 L 5.265625 -7.234375 L 6.78125 -7.234375 L 6.78125 0 L 5.265625 0 L 5.265625 -2.984375 L 2.15625 -2.984375 L 2.15625 0 Z M 0.625 0"/></g><g id="k"><path d="M 0.625 -7.234375 L 2.515625 -7.234375 L 4.5 -2.375 L 4.59375 -2.375 L 6.578125 -7.234375 L 8.46875 -7.234375 L 8.46875 0 L 6.984375 0 L 6.984375 -4.703125 L 6.921875 -4.703125 L 5.046875 -0.03125 L 4.046875 -0.03125 L 2.171875 -4.71875 L 2.109375 -4.71875 L 2.109375 0 L 0.625 0 Z M 0.625 -7.234375"/></g><g id="l"><path d="M 1.875 0 L 0.234375 0 L 2.734375 -7.234375 L 4.703125 -7.234375 L 7.1875 0 L 5.546875 0 L 5.015625 -1.640625 L 2.40625 -1.640625 Z M 2.796875 -2.84375 L 4.640625 -2.84375 L 3.75 -5.578125 L 3.6875 -5.578125 Z M 2.796875 -2.84375"/></g><g id="m"><path d="M 6.671875 -7.234375 L 6.671875 0 L 5.359375 0 L 2.203125 -4.546875 L 2.15625 -4.546875 L 2.15625 0 L 0.625 0 L 0.625 -7.234375 L 1.96875 -7.234375 L 5.09375 -2.6875 L 5.15625 -2.6875 L 5.15625 -7.234375 Z M 6.671875 -7.234375"/></g><clipPath id="a"><path d="M 40.792969 13 L 46 13 L 46 17 L 40.792969 17 Z M 40.792969 13"/></clipPath><clipPath id="b"><path d="M 40.792969 17 L 43 17 L 43 19.101562 L 40.792969 19.101562 Z M 40.792969 17"/></clipPath><clipPath id="c"><path d="M 54 14 L 54.894531 14 L 54.894531 16 L 54 16 Z M 54 14"/></clipPath><clipPath id="d"><path d="M 51 14 L 54.894531 14 L 54.894531 16 L 51 16 Z M 51 14"/></clipPath><clipPath id="e"><path d="M 46 9.90625 L 51 9.90625 L 51 12 L 46 12 Z M 46 9.90625"/></clipPath></defs><g clip-path="url(#a)"><path d="M 45.757812 13.878906 C 45.351562 14.132812 45.035156 14.007812 44.609375 13.890625 C 44.339844 13.78125 44.070312 13.792969 43.808594 13.925781 C 43.605469 14.097656 43.441406 14.300781 43.324219 14.542969 C 43.257812 14.648438 43.191406 14.753906 43.125 14.855469 C 43.09375 14.910156 43.046875 14.953125 42.992188 14.980469 C 42.960938 14.984375 42.933594 14.996094 42.914062 15.019531 C 42.761719 15.007812 42.609375 15.007812 42.457031 15.019531 C 42.238281 15.015625 42.050781 15.089844 41.890625 15.238281 C 41.714844 15.410156 41.574219 15.605469 41.464844 15.824219 C 41.394531 15.988281 41.296875 16.132812 41.171875 16.261719 C 41.121094 16.285156 41.070312 16.300781 41.015625 16.308594 C 41.007812 16.3125 41 16.316406 40.996094 16.328125 C 40.992188 16.335938 40.996094 16.34375 41 16.351562 C 40.941406 16.371094 40.882812 16.378906 40.820312 16.375 C 40.800781 16.375 40.792969 16.382812 40.792969 16.402344 C 40.792969 16.417969 40.800781 16.425781 40.820312 16.425781 C 41.300781 16.503906 41.507812 16.214844 41.765625 15.839844 C 41.921875 15.609375 42.144531 15.347656 42.445312 15.359375 C 42.625 15.394531 42.800781 15.402344 42.980469 15.386719 C 42.910156 15.5625 42.878906 15.742188 42.894531 15.929688 C 42.894531 15.960938 42.941406 15.960938 42.949219 15.929688 C 42.957031 15.894531 42.964844 15.859375 42.976562 15.824219 C 42.976562 15.824219 42.984375 15.824219 42.988281 15.8125 C 43.152344 15.515625 43.578125 15.507812 43.839844 15.335938 C 43.855469 15.328125 43.867188 15.316406 43.875 15.300781 C 43.917969 15.285156 43.945312 15.253906 43.949219 15.210938 C 43.957031 15.164062 43.9375 15.128906 43.898438 15.105469 C 43.75 15.035156 43.59375 15.015625 43.429688 15.042969 C 43.574219 14.847656 43.679688 14.613281 43.808594 14.414062 C 43.890625 14.238281 44.027344 14.128906 44.21875 14.09375 C 44.449219 14.078125 44.671875 14.101562 44.890625 14.167969 C 45.230469 14.242188 45.582031 14.226562 45.792969 13.917969 C 45.804688 13.90625 45.808594 13.894531 45.796875 13.882812 C 45.785156 13.867188 45.769531 13.867188 45.757812 13.878906 Z M 43.179688 15.433594 L 43.195312 15.414062 L 43.210938 15.398438 L 43.210938 15.410156 Z M 43.179688 15.433594"/></g><path d="M 48.777344 15.304688 C 48.566406 15.148438 48.332031 15.046875 48.074219 14.996094 C 47.800781 14.976562 47.570312 15.066406 47.382812 15.273438 C 47.28125 15.363281 47.1875 15.46875 47.089844 15.554688 C 46.96875 15.644531 46.835938 15.722656 46.699219 15.789062 C 46.335938 15.847656 45.941406 15.804688 45.628906 16.007812 C 45.152344 16.3125 45.183594 16.988281 44.722656 17.304688 C 44.6875 17.328125 44.722656 17.378906 44.761719 17.355469 C 45.199219 17.085938 45.328125 16.589844 45.699219 16.261719 C 45.894531 16.089844 46.144531 16.117188 46.382812 16.136719 C 46.4375 16.140625 46.496094 16.140625 46.554688 16.136719 C 46.496094 16.222656 46.433594 16.308594 46.378906 16.402344 C 46.324219 16.492188 46.46875 16.574219 46.523438 16.492188 C 46.578125 16.410156 46.640625 16.335938 46.699219 16.257812 C 46.78125 16.300781 46.867188 16.3125 46.957031 16.296875 C 47.140625 16.296875 47.320312 16.277344 47.503906 16.285156 C 47.636719 16.285156 47.730469 16.089844 47.578125 16.035156 C 47.421875 15.984375 47.304688 15.929688 47.171875 15.890625 C 47.367188 15.738281 47.53125 15.496094 47.695312 15.371094 C 47.90625 15.214844 48.128906 15.195312 48.363281 15.308594 C 48.472656 15.347656 48.847656 15.570312 48.964844 15.515625 C 48.945312 15.519531 48.941406 15.53125 48.949219 15.550781 C 48.953125 15.566406 48.964844 15.570312 48.984375 15.5625 L 48.996094 15.5625 C 49.007812 15.558594 49.011719 15.554688 49.015625 15.542969 C 49.019531 15.449219 48.835938 15.347656 48.777344 15.304688 Z M 48.777344 15.304688"/><path d="M 49.109375 13.238281 C 48.957031 13.300781 48.765625 13.15625 48.605469 13.15625 C 48.386719 13.15625 48.210938 13.246094 48.078125 13.421875 C 47.917969 13.367188 47.765625 13.378906 47.617188 13.457031 C 47.441406 13.601562 47.28125 13.761719 47.144531 13.941406 C 47.117188 13.96875 47.160156 14.015625 47.191406 13.988281 C 47.4375 13.773438 47.65625 13.523438 48 13.609375 C 47.988281 13.617188 47.976562 13.625 47.964844 13.636719 C 47.941406 13.667969 47.941406 13.703125 47.957031 13.738281 C 47.976562 13.773438 48.007812 13.789062 48.046875 13.789062 C 48.132812 13.777344 48.355469 13.746094 48.292969 13.605469 C 48.28125 13.585938 48.269531 13.570312 48.253906 13.558594 C 48.300781 13.519531 48.347656 13.476562 48.402344 13.4375 C 48.492188 13.382812 48.59375 13.359375 48.699219 13.363281 C 48.78125 13.363281 48.859375 13.363281 48.941406 13.351562 C 49.003906 13.332031 49.0625 13.300781 49.121094 13.265625 C 49.140625 13.257812 49.128906 13.230469 49.109375 13.238281 Z M 48.128906 13.730469 C 48.136719 13.734375 48.144531 13.742188 48.152344 13.746094 Z M 48.128906 13.730469"/><g clip-path="url(#b)"><path d="M 42.835938 17.878906 C 42.617188 17.855469 42.40625 17.878906 42.199219 17.945312 C 42.011719 18.039062 41.871094 18.179688 41.785156 18.371094 C 41.414062 18.371094 41.171875 18.761719 40.988281 19.050781 C 40.976562 19.066406 40.976562 19.082031 40.992188 19.09375 C 41.007812 19.109375 41.023438 19.105469 41.039062 19.089844 C 41.152344 18.972656 41.246094 18.84375 41.351562 18.722656 C 41.46875 18.601562 41.609375 18.542969 41.78125 18.550781 L 41.773438 18.566406 C 41.757812 18.601562 41.753906 18.640625 41.761719 18.675781 C 41.753906 18.722656 41.804688 18.777344 41.847656 18.738281 C 41.871094 18.738281 41.894531 18.726562 41.910156 18.707031 L 41.96875 18.636719 C 42.058594 18.675781 42.164062 18.539062 42.066406 18.46875 C 42.039062 18.441406 42.003906 18.429688 41.96875 18.433594 C 42.035156 18.277344 42.148438 18.160156 42.300781 18.082031 C 42.472656 18.019531 42.652344 17.976562 42.832031 17.945312 C 42.867188 17.9375 42.878906 17.878906 42.835938 17.878906 Z M 42.835938 17.878906"/></g><g clip-path="url(#c)"><path d="M 54.855469 14.984375 C 54.808594 15 54.769531 15.023438 54.730469 15.050781 C 54.722656 15.050781 54.71875 15.074219 54.730469 15.074219 C 54.78125 15.074219 54.808594 15.039062 54.855469 15.027344 C 54.902344 15.015625 54.878906 14.980469 54.855469 14.984375 Z M 54.855469 14.984375"/></g><g clip-path="url(#d)"><path d="M 54.339844 15.042969 C 54.175781 14.714844 54.003906 14.246094 53.585938 14.203125 C 53.171875 14.15625 52.976562 14.636719 52.609375 14.710938 C 52.421875 14.574219 52.214844 14.496094 51.984375 14.472656 C 51.566406 14.472656 51.273438 14.902344 51.023438 15.171875 C 50.996094 15.195312 51.035156 15.226562 51.0625 15.214844 C 51.3125 15.070312 51.769531 14.660156 52.078125 14.765625 C 52.226562 14.847656 52.382812 14.921875 52.542969 14.984375 L 52.558594 14.984375 C 52.371094 15.042969 52.207031 15.148438 52.070312 15.292969 C 52.035156 15.332031 52.085938 15.402344 52.132812 15.378906 C 52.441406 15.210938 52.769531 15.113281 53.09375 15.296875 C 53.144531 15.324219 53.191406 15.320312 53.234375 15.289062 C 53.277344 15.257812 53.296875 15.214844 53.292969 15.160156 C 53.261719 15.007812 53.203125 14.992188 53.074219 14.941406 C 53.023438 14.917969 52.976562 14.925781 52.9375 14.960938 L 52.90625 14.960938 C 53.042969 14.871094 53.164062 14.769531 53.277344 14.652344 C 53.6875 14.261719 54.011719 14.8125 54.296875 15.09375 C 54.3125 15.105469 54.328125 15.105469 54.34375 15.089844 C 54.359375 15.074219 54.355469 15.058594 54.339844 15.042969 Z M 53.035156 15.214844 C 53.035156 15.214844 53.035156 15.214844 53.019531 15.226562 Z M 53.035156 15.214844"/></g><path d="M 52.703125 13.113281 C 52.59375 12.894531 52.414062 12.777344 52.167969 12.761719 C 51.941406 12.785156 51.734375 12.863281 51.550781 13 C 51.433594 12.945312 51.3125 12.933594 51.1875 12.972656 C 51.027344 13.023438 50.90625 13.121094 50.820312 13.265625 C 50.816406 13.277344 50.820312 13.289062 50.828125 13.296875 C 50.839844 13.304688 50.851562 13.308594 50.863281 13.296875 C 51.007812 13.167969 51.175781 13.121094 51.367188 13.15625 C 51.339844 13.179688 51.328125 13.207031 51.339844 13.242188 C 51.347656 13.277344 51.371094 13.296875 51.40625 13.304688 L 51.585938 13.332031 C 51.621094 13.332031 51.65625 13.363281 51.691406 13.367188 C 51.773438 13.375 51.820312 13.339844 51.835938 13.261719 C 51.84375 13.214844 51.828125 13.175781 51.789062 13.148438 C 51.867188 13.101562 51.945312 13.058594 52.027344 13.023438 C 52.265625 12.921875 52.449219 13.023438 52.652344 13.152344 C 52.667969 13.171875 52.683594 13.171875 52.699219 13.160156 C 52.714844 13.144531 52.71875 13.128906 52.703125 13.113281 Z M 52.703125 13.113281"/><g clip-path="url(#e)"><path d="M 50.902344 10.46875 C 50.484375 10.257812 50.035156 10.015625 49.5625 9.953125 C 49.234375 9.914062 48.78125 10.082031 48.714844 10.4375 C 48.390625 10.355469 48.0625 10.355469 47.738281 10.4375 C 47.257812 10.578125 46.976562 11.179688 46.449219 11.089844 C 46.433594 11.089844 46.421875 11.097656 46.414062 11.113281 C 46.410156 11.128906 46.414062 11.140625 46.429688 11.148438 C 46.867188 11.378906 47.199219 11.050781 47.574219 10.847656 C 47.730469 10.753906 47.902344 10.703125 48.085938 10.691406 L 48.378906 10.691406 C 48.339844 10.761719 48.296875 10.835938 48.261719 10.90625 C 48.242188 10.945312 48.246094 10.984375 48.269531 11.015625 C 48.296875 11.050781 48.332031 11.066406 48.375 11.0625 C 48.570312 11.039062 48.765625 10.984375 48.960938 10.960938 C 48.992188 10.960938 49.015625 10.953125 49.039062 10.933594 L 49.113281 10.933594 C 49.167969 10.9375 49.207031 10.917969 49.230469 10.867188 C 49.257812 10.820312 49.25 10.777344 49.214844 10.734375 C 49.152344 10.660156 49.078125 10.613281 48.984375 10.59375 C 49.078125 10.457031 49.125 10.3125 49.3125 10.265625 C 49.5 10.242188 49.6875 10.253906 49.867188 10.308594 C 50.191406 10.390625 50.539062 10.539062 50.890625 10.539062 C 50.929688 10.539062 50.929688 10.484375 50.902344 10.46875 Z M 50.902344 10.46875"/></g><g fill="#483434"><use x="7.761" y="17.716" xmlns:xlink="http://www.w3.org/1999/xlink" xlink:href="#f" xlink:type="simple" xlink:actuate="onLoad" xlink:show="embed"/></g><g fill="#483434"><use x="17.26" y="17.716" xmlns:xlink="http://www.w3.org/1999/xlink" xlink:href="#g" xlink:type="simple" xlink:actuate="onLoad" xlink:show="embed"/></g><g fill="#483434"><use x="27.439" y="17.716" xmlns:xlink="http://www.w3.org/1999/xlink" xlink:href="#h" xlink:type="simple" xlink:actuate="onLoad" xlink:show="embed"/></g><g fill="#483434"><use x="36.878" y="17.716" xmlns:xlink="http://www.w3.org/1999/xlink" xlink:href="#i" xlink:type="simple" xlink:actuate="onLoad" xlink:show="embed"/></g><g fill="#483434"><use x="47.224" y="17.716" xmlns:xlink="http://www.w3.org/1999/xlink" xlink:href="#j" xlink:type="simple" xlink:actuate="onLoad" xlink:show="embed"/></g><g fill="#483434"><use x="52.461" y="17.716" xmlns:xlink="http://www.w3.org/1999/xlink" xlink:href="#k" xlink:type="simple" xlink:actuate="onLoad" xlink:show="embed"/></g><g fill="#483434"><use x="64.574" y="17.716" xmlns:xlink="http://www.w3.org/1999/xlink" xlink:href="#l" xlink:type="simple" xlink:actuate="onLoad" xlink:show="embed"/></g><g fill="#483434"><use x="74.937" y="17.716" xmlns:xlink="http://www.w3.org/1999/xlink" xlink:href="#m" xlink:type="simple" xlink:actuate="onLoad" xlink:show="embed"/></g></svg>